<?xml version="1.0" standalone="no"?><!DOCTYPE svg PUBLIC "-//W3C//DTD SVG 1.1//EN" "http://www.w3.org/Graphics/SVG/1.1/DTD/svg11.dtd"><svg t="1725518488807" class="icon" viewBox="0 0 1024 1024" version="1.1" xmlns="http://www.w3.org/2000/svg" p-id="796" xmlns:xlink="http://www.w3.org/1999/xlink" width="200" height="200"><path d="M855.272727 901.818182H168.727273c-34.909091 0-58.181818 29.090909-58.181818 58.181818s29.090909 58.181818 58.181818 58.181818h686.545454c34.909091 0 58.181818-29.090909 58.181818-58.181818s-29.090909-58.181818-58.181818-58.181818zM872.727273 0H151.272727C69.818182 0 0 69.818182 0 151.272727v541.090909c0 81.454545 69.818182 151.272727 151.272727 151.272728H872.727273c81.454545 0 151.272727-69.818182 151.272727-151.272728V151.272727C1024 69.818182 960 0 872.727273 0zM122.181818 151.272727c0-17.454545 11.636364-29.090909 29.090909-29.090909H872.727273c17.454545 0 29.090909 11.636364 29.090909 29.090909v541.090909c0 17.454545-11.636364 29.090909-29.090909 29.090909H151.272727c-17.454545 0-29.090909-11.636364-29.090909-29.090909V151.272727z" fill="#C4C1FF" p-id="797"></path><path d="M692.363636 471.272727h-116.363636l-58.181818 104.727273 58.181818 104.727273h116.363636l58.181819-104.727273-58.181819-104.727273z m-29.090909 168.727273h-69.818182l-34.90909-64 34.90909-64h69.818182l34.909091 64-34.909091 64z" fill="#C4C1FF" p-id="798"></path><path d="M628.363636 576m-34.909091 0a34.909091 34.909091 0 1 0 69.818182 0 34.909091 34.909091 0 1 0-69.818182 0Z" fill="#C4C1FF" p-id="799"></path><path d="M488.727273 186.181818c-104.727273 0-215.272727 34.909091-215.272728 110.545455v256c0 58.181818 75.636364 98.909091 186.181819 110.545454H465.454545c5.818182 0 11.636364 0 17.454546-5.818182 5.818182-5.818182 11.636364-17.454545 11.636364-23.272727 0-5.818182 0-17.454545-5.818182-23.272727-5.818182-5.818182-11.636364-11.636364-23.272728-11.636364-81.454545-5.818182-133.818182-34.909091-133.818181-52.363636 23.272727 17.454545 52.363636 29.090909 93.090909 34.909091 17.454545 5.818182 29.090909-5.818182 34.909091-23.272727 0-17.454545-5.818182-34.909091-23.272728-34.909091-64-11.636364-98.909091-34.909091-104.727272-52.363637V465.454545c34.909091 23.272727 87.272727 29.090909 139.636363 34.909091 17.454545 0 29.090909-11.636364 29.090909-29.090909s-11.636364-29.090909-29.090909-29.090909c-81.454545-5.818182-133.818182-34.909091-139.636363-58.181818 40.727273 23.272727 98.909091 34.909091 162.909091 34.909091 64 0 122.181818-11.636364 157.090909-34.909091v52.363636c0 17.454545 17.454545 29.090909 29.090909 29.090909 17.454545 0 29.090909-11.636364 29.090909-29.090909V302.545455c5.818182-64-93.090909-116.363636-221.090909-116.363637z m0 168.727273c-93.090909 0-157.090909-29.090909-157.090909-52.363636 0-29.090909 64-52.363636 157.090909-52.363637s157.090909 29.090909 157.090909 52.363637c5.818182 23.272727-58.181818 52.363636-157.090909 52.363636z" fill="#C4C1FF" p-id="800"></path></svg>