<?xml version="1.0" standalone="no"?><!DOCTYPE svg PUBLIC "-//W3C//DTD SVG 1.1//EN" "http://www.w3.org/Graphics/SVG/1.1/DTD/svg11.dtd"><svg t="1725428675851" class="icon" viewBox="0 0 1024 1024" version="1.1" xmlns="http://www.w3.org/2000/svg" p-id="17092" xmlns:xlink="http://www.w3.org/1999/xlink" width="200" height="200"><path d="M525.056 309.312c26.752 0 48.384 21.632 48.384 48.384v280.768a48.384 48.384 0 0 1-48.384 48.384h-25.664a48.384 48.384 0 0 1-48.384-48.384V357.76c0-26.752 21.632-48.384 48.384-48.384h25.664z m183.488 71.424c26.752 0 48.384 21.632 48.384 48.384v209.344a48.384 48.384 0 0 1-48.384 48.384h-25.664a48.384 48.384 0 0 1-48.384-48.384V429.12c0-26.752 21.632-48.384 48.384-48.384h25.664zM341.12 452.16c26.752 0 48.384 21.696 48.384 48.384v137.92a48.384 48.384 0 0 1-48.384 48.384h-25.664a48.384 48.384 0 0 1-48.384-48.384V500.544c0-26.752 21.632-48.384 48.384-48.384h25.664z" p-id="17093" fill="#C4C1FF"></path><path d="M203.264 283.008A386.56 386.56 0 0 1 512 129.408c168.96 0 312.32 108.16 365.632 258.752h90.432C911.68 189.12 729.088 43.2 512 43.2a472.64 472.64 0 0 0-380.416 192l-94.08-62.656v301.888L296.32 345.024l-93.056-62.08z m524.352 407.04l93.056 62.08A386.56 386.56 0 0 1 512 905.728a387.968 387.968 0 0 1-365.632-258.816H55.872C112.256 845.952 294.848 992 512 992a472.576 472.576 0 0 0 380.352-192.064l94.08 62.656V560.64l-258.816 129.344z" p-id="17094" fill="#C4C1FF"></path></svg>